<svg xmlns="http://www.w3.org/2000/svg" width="296.361" height="83" viewBox="0 0 296.361 83">
  <g id="logo_intro" transform="translate(-38.341 -85.46)">
    <g id="Logo" transform="translate(38 110.794)">
      <g id="Group_1015" data-name="Group 1015" transform="translate(0 -25.794)" opacity="0.999">
        <g id="Group_2" data-name="Group 2" transform="translate(111.893 26.461)">
          <path id="Path_7" data-name="Path 7" d="M28.581,8.294a.586.586,0,0,1,.063.32V24.177a3.213,3.213,0,0,1-3.2,3.2,3.159,3.159,0,0,1-3.138-3.2V8.037a6.532,6.532,0,0,0-13.063,0V24.177a3.16,3.16,0,0,1-3.141,3.2,3.212,3.212,0,0,1-3.2-3.2V8.037A6.452,6.452,0,0,0-3.57,1.569a6.508,6.508,0,0,0-6.536,6.467V24.177a3.157,3.157,0,0,1-3.138,3.2,3.171,3.171,0,0,1-3.2-3.2V8.037A12.86,12.86,0,0,1-3.57-4.772,12.665,12.665,0,0,1,6.1-.353a12.676,12.676,0,0,1,9.674-4.419A12.859,12.859,0,0,1,28.643,8.037c0,.129,0,.194-.063.257" transform="translate(16.444 4.772)" fill="#287c8a"/>
        </g>
        <g id="Group_3" data-name="Group 3" transform="translate(165.691 39.463)">
          <path id="Path_8" data-name="Path 8" d="M2.034,0H14.174a3.155,3.155,0,0,1,3.138,3.2,3.143,3.143,0,0,1-3.138,3.141H2.034A3.171,3.171,0,1,1,2.034,0" transform="translate(1.17)" fill="#287c8a"/>
        </g>
        <g id="Group_4" data-name="Group 4" transform="translate(192.884 10.45)">
          <path id="Path_9" data-name="Path 9" d="M17.928,19.026V33.886a3.21,3.21,0,0,1-3.2,3.2,3.157,3.157,0,0,1-3.141-3.2V19.026a7.78,7.78,0,0,0-15.56,0V33.886a3.171,3.171,0,0,1-3.2,3.2,3.155,3.155,0,0,1-3.138-3.2v-41.7a3.141,3.141,0,0,1,3.138-3.138,3.157,3.157,0,0,1,3.2,3.138V7.242A13.95,13.95,0,0,1,3.775,4.936a14.146,14.146,0,0,1,14.153,14.09" transform="translate(10.315 10.947)" fill="#287c8a"/>
        </g>
        <g id="Group_5" data-name="Group 5" transform="translate(229.838 26.397)">
          <path id="Path_10" data-name="Path 10" d="M16.465,1.992V18.133a12.969,12.969,0,0,1-25.938,0V1.992A3.141,3.141,0,0,1-6.335-1.146a3.155,3.155,0,0,1,3.2,3.138V18a6.644,6.644,0,0,0,6.6,6.662A6.657,6.657,0,0,0,10.123,18V1.992a3.171,3.171,0,0,1,6.341,0" transform="translate(9.473 1.146)" fill="#287c8a"/>
        </g>
        <g id="Group_6" data-name="Group 6" transform="translate(264.549 10.385)">
          <path id="Path_11" data-name="Path 11" d="M16.385,20.247a9.735,9.735,0,0,0-19.47-.063v.063a9.735,9.735,0,0,0,19.47,0m6.341,0a16.076,16.076,0,0,1-32.153,0V-8.511a3.157,3.157,0,0,1,3.2-3.138A3.145,3.145,0,0,1-3.086-8.511V7.438A16.092,16.092,0,0,1,22.726,20.247" transform="translate(9.427 11.649)" fill="#287c8a"/>
        </g>
        <g id="Group_7" data-name="Group 7" transform="translate(0.341 0.46)">
          <path id="Path_12" data-name="Path 12" d="M39.7,17.782a4.221,4.221,0,0,1-3.52-1.87l-2.275-3a5.539,5.539,0,1,1,1.345-1.129l2.382,3.15a2.485,2.485,0,0,0,2.067,1.1H56.8A41.5,41.5,0,1,0,56.836,45.9H39.7a2.461,2.461,0,0,0-2.021,1.029l-2.428,3.214A5.558,5.558,0,1,1,33.9,49.018l2.329-3.077A4.185,4.185,0,0,1,39.7,44.147H57.467a41.272,41.272,0,0,0,1.391-5.316H19.766a2.461,2.461,0,0,0-2.021,1.029L8.864,51.607a5.527,5.527,0,1,1-1.4-1.062L16.3,38.869a4.191,4.191,0,0,1,3.469-1.794H59.157a41.209,41.209,0,0,0,.423-5.189H-5a5.529,5.529,0,0,1-5.463,4.683A5.535,5.535,0,0,1-16,31.033,5.534,5.534,0,0,1-10.468,25.5a5.532,5.532,0,0,1,5.455,4.626H59.58a41.408,41.408,0,0,0-.434-5.273H19.766a4.219,4.219,0,0,1-3.52-1.87l-8.783-11.6a5.56,5.56,0,1,1,1.4-1.064L17.7,22a2.485,2.485,0,0,0,2.067,1.1H58.842a40.651,40.651,0,0,0-1.4-5.316Z" transform="translate(23.42 10.495)" fill="#287c8a"/>
        </g>
      </g>
    </g>
  </g>
</svg>
